<svg width="109" height="109" viewBox="0 0 109 109" fill="none" xmlns="http://www.w3.org/2000/svg">
<path fill-rule="evenodd" clip-rule="evenodd" d="M28.7909 10.6848C27.3629 6.47661 25.0271 3.67067 21.1619 1.50323C15.3722 -1.12638 10.5416 -0.20007 5.50285 3.45486C2.28089 6.24789 0.570928 8.88837 0.15285 13.1291C0.0252241 17.6069 0.119795 21.2549 3.25035 24.694C8.61168 29.6705 13.273 29.7437 20.3547 29.4765V23.6217L18.7278 23.5022L16.6014 23.337C15.2678 23.2359 13.9354 23.1164 12.6059 22.9711L10.6687 22.3206C9.99732 22.1278 9.65327 22.0291 9.3372 21.8735C9.00501 21.71 8.70373 21.4837 8.08579 21.0195C6.77596 18.1824 6.56621 15.6649 6.79432 12.5624C7.58389 10.0315 9.07337 8.70316 11.3145 7.35811C14.0713 6.89941 16.3809 7.06436 18.9825 8.08997C21.2001 10.0612 22.1707 12.2714 22.5494 15.2136L22.5711 17.3586C22.5908 18.6041 22.6101 19.8497 22.6163 21.0953C22.6204 21.9818 22.6278 22.8683 22.6386 23.7547C22.671 26.0831 22.6971 28.4113 22.7139 30.7398C22.7313 33.1507 22.7566 35.5615 22.7854 37.9723C22.8421 42.662 22.8887 47.3517 22.9262 52.0416L22.9377 53.5466C23.1583 53.3648 23.379 53.1835 23.5997 53.0023C24.6826 52.1129 25.7633 51.2254 26.8121 50.2939C27.763 49.0233 28.3942 48.1801 28.8099 47.2414C29.6303 45.3889 29.6117 43.1647 29.5564 36.5512L29.395 30.1271L55.8701 30.7776C55.4284 31.1252 54.9869 31.4729 54.5454 31.8205C49.7247 35.6163 44.9065 39.4102 39.995 43.0871C39.4448 43.4988 38.892 43.9087 38.3388 44.3189C35.0053 46.7908 31.656 49.2743 28.7493 52.2455C23.9516 57.5011 22.7031 63.043 22.7674 70.077L22.8166 72.1684C22.8413 74.1919 22.8662 76.215 22.9069 78.2383L22.9377 79.5683C21.592 79.5558 20.2463 79.5442 18.9006 79.5365L17.2471 79.5276L15.6164 79.5111L14.0462 79.5047C10.6931 79.4808 8.32107 80.5959 5.55078 82.4169C2.39148 84.9044 0.581735 87.527 0.031775 91.5703C-0.083107 96.3054 -0.0602142 100.435 3.25035 104.055C7.12762 107.672 10.9768 109.183 16.2533 108.982C20.5146 108.59 23.3579 106.797 26.1663 103.638C29.7445 98.7111 29.7771 93.9619 29.395 88.0253H22.9377L22.8191 89.8067L22.6551 92.1319C22.5553 93.5837 22.4369 95.0344 22.2919 96.4824C21.4496 99.028 20.51 100.018 18.4175 101.687C15.5544 102.568 13.2764 102.55 10.4266 101.646C8.33411 100.09 7.64363 98.9542 6.79432 96.4824C6.56039 93.7486 6.4555 91.5945 8.08579 89.3264C10.303 87.0926 11.8771 86.4253 15.0211 86.3932L16.4619 86.4185C18.0758 86.414 19.689 86.4134 21.3029 86.4292C22.4555 86.4413 23.6081 86.4488 24.7607 86.452C27.1644 86.4543 29.568 86.4598 31.9717 86.4768C35.0984 86.5026 38.225 86.525 41.3519 86.5322C44.3786 86.5383 47.4052 86.5476 50.4318 86.5612L52.1647 86.5692C53.8403 86.5757 55.5158 86.5833 57.1913 86.5961L58.7221 86.6091C60.3605 86.6151 61.981 86.6502 63.6189 86.7242C68.4554 89.1605 72.9881 93.077 76.0896 97.4988C76.882 98.6788 77.6757 99.8579 78.4707 101.036C81.372 104.858 83.9205 108.017 88.8025 108.843C93.6344 109.296 97.5589 108.903 101.475 105.834C104.558 102.955 106.087 100.398 106.414 96.1215C106.474 90.1804 105.683 87.2211 101.717 82.821C100.222 81.5794 99.2141 80.7431 98.0696 80.1904C95.7076 79.0495 92.7621 79.1168 83.7372 79.3229C82.5287 79.3512 81.32 79.3733 80.1112 79.3896C76.5503 79.4286 72.9907 79.4873 69.4305 79.5683V80.2188C76.0164 86.3909 82.4727 86.7621 91.2113 86.7242C93.2896 86.6784 94.5615 86.7066 96.5513 87.3748C96.5992 87.4208 96.6468 87.4665 96.6941 87.5118C98.3371 89.0886 99.5618 90.264 100.055 92.5562C100.164 95.5821 99.5462 97.841 97.8427 100.386C95.5835 102.336 93.6417 102.562 90.78 102.596C88.1222 102.079 86.5703 100.864 84.9785 98.6932C78.7663 88.3426 78.7663 88.3426 58.5388 75.2127L58.5388 75.2127C56.9353 74.1734 55.3323 73.1334 53.733 72.0877L52.3135 71.157C51.4003 70.5591 50.4872 69.9611 49.5742 69.3629C47.325 67.8821 45.0774 66.4061 42.7697 65.0191L41.2679 64.1306C40.3108 63.5561 39.3532 62.9826 38.3949 62.4102C38.1707 62.2831 37.9488 62.1599 37.7302 62.0385C35.8089 60.9718 34.1399 60.0452 33.3526 57.7904C34.0248 56.5483 34.3649 55.92 34.8349 55.412C35.3162 54.892 35.9336 54.4981 37.1832 53.701C38.6616 52.7506 38.6616 52.7506 41.3907 50.5617C45.5491 47.215 49.7846 43.9812 54.0539 40.7797L55.6322 39.6035L57.1893 38.4367C58.2753 37.6443 59.3424 36.825 60.3902 35.982C61.3694 34.9036 62.3658 33.841 63.3767 32.7928C67.356 30.9349 69.3826 29.9887 71.5133 29.5626C73.7246 29.1204 76.0481 29.2384 80.783 29.4789C82.8759 29.5173 84.9675 29.531 87.0608 29.5363C88.3989 29.5362 89.737 29.5374 91.0751 29.5401C91.184 29.542 91.2927 29.5439 91.401 29.5458C96.0784 29.6293 100.271 29.7041 104.058 26.4678C107.141 23.5892 108.67 21.0316 108.997 16.7554C109.056 10.8958 108.325 7.75613 104.3 3.45486C100.249 0.511303 96.3228 -0.436742 91.3854 0.202146C86.8874 1.71265 84.2135 3.97262 81.4169 7.84601C79.1778 11.0134 76.8215 13.751 74.0414 16.4428C72.4768 17.9414 70.9529 19.4776 69.4305 21.0195C72.7101 21.2843 75.8415 21.4015 79.1165 21.0195C80.6193 20.1179 81.2382 19.3232 82.1837 17.8557C84.4795 13.9022 87.4995 9.7853 91.3854 7.35811C94.4849 6.84495 97.0651 6.99415 99.7799 8.65919C101.188 10.314 102.207 11.6812 102.592 13.861C102.708 16.785 102.315 18.7984 100.426 21.0195C97.5293 22.915 95.1604 23.2073 91.8074 23.2552L89.9467 23.2524C87.8659 23.2734 85.7854 23.2917 83.7046 23.2979C82.219 23.302 80.7335 23.3095 79.2481 23.3203C75.3543 23.3531 71.4606 23.3794 67.5667 23.3963C63.5319 23.4137 59.4972 23.4392 55.4625 23.4683C46.7734 23.5317 38.0843 23.5818 29.395 23.6217C29.4198 22.4625 29.443 21.3033 29.458 20.1441L29.4757 18.7019C29.5425 15.8735 29.453 13.4558 28.7909 10.6848ZM35.1235 67.3301C33.4492 66.2972 31.9907 65.5811 30.0408 65.2565C29.7709 65.5285 29.6138 65.6868 29.517 65.8759C29.3823 66.1392 29.3645 66.4622 29.3218 67.235L29.3321 68.959L29.3369 70.6351L29.3548 72.7784L29.3951 79.5685H52.6415V78.9179C48.4833 75.7353 44.0579 72.901 39.6256 70.1251L38.0722 69.1598L36.559 68.2122L35.1235 67.3301Z" fill="#F6F7F7"/>
<path fill-rule="evenodd" clip-rule="evenodd" d="M91.3854 34.0303H75.8878C75.887 34.16 75.8863 34.2897 75.8855 34.4193C75.8713 36.8798 75.8571 39.3375 75.8159 41.7974C75.798 42.8541 75.7816 43.9108 75.7667 44.9675C75.7616 46.5256 75.7559 48.0826 75.7282 49.6404L75.6986 51.1197C75.7035 52.0454 75.6944 52.9714 75.6678 53.8967C75.5713 55.1221 75.5253 55.7063 75.2468 56.1418C74.993 56.5386 74.5463 56.8121 73.6925 57.3346C72.9304 57.6821 72.5142 57.8719 72.1473 58.1314C71.7058 58.4437 71.3356 58.8569 70.5201 59.7673C68.8251 63.2459 68.8643 66.7981 70.0762 70.4606C71.934 72.6904 73.9094 74.7442 76.8084 75.3321C80.7487 75.3516 83.2788 74.5022 86.2195 71.7617C88.0193 69.0732 88.5766 66.6611 88.4695 63.4673C87.911 60.8538 86.3392 59.0725 84.2823 57.4498L81.0536 56.1487V48.3422H91.3854V43.7884H81.0536V39.2346H91.3854V34.0303ZM82.922 62.5178C82.6785 62.1854 82.3558 61.911 81.6994 61.353C78.7261 60.5361 76.6568 60.0992 74.5963 62.6541C73.956 65.0193 73.629 66.4837 74.6367 68.7529C75.2069 69.2348 75.5172 69.497 75.8619 69.7013C76.2734 69.9452 76.7339 70.1066 77.7443 70.4606C78.7386 70.4606 79.2429 70.4606 79.716 70.339C80.2031 70.2138 80.657 69.9598 81.5783 69.4441C83.2768 67.5374 83.6366 66.5063 83.6366 63.9552C83.319 63.2154 83.1576 62.8394 82.922 62.5178Z" fill="#F4F4F4"/>
</svg>
